<svg xmlns="http://www.w3.org/2000/svg" viewBox="0 0 900 620" width="900" height="620" font-family="DejaVu Sans,Arial,sans-serif">
  <defs>
    <marker id="arr" markerWidth="10" markerHeight="7" refX="9" refY="3.5" orient="auto">
      <polygon points="0 0, 10 3.5, 0 7" fill="#555"/>
    </marker>
  </defs>
  <rect width="900" height="620" fill="#f8f8f8"/>
  <text x="450" y="36" font-size="22" font-weight="bold" text-anchor="middle" fill="#222">Como Funciona o Whirlpool (CoinJoin)</text>

  <!-- INPUTS: 5 participants -->
  <rect x="30" y="70" width="180" height="60" rx="8" fill="#fff2cc" stroke="#d6b656" stroke-width="1.5"/>
  <text x="120" y="97" font-size="14" text-anchor="middle" fill="#555">👤 Participante A</text>
  <text x="120" y="117" font-size="13" text-anchor="middle" fill="#888">0.01 BTC</text>

  <rect x="30" y="155" width="180" height="60" rx="8" fill="#fff2cc" stroke="#d6b656" stroke-width="1.5"/>
  <text x="120" y="182" font-size="14" text-anchor="middle" fill="#555">👤 Participante B</text>
  <text x="120" y="202" font-size="13" text-anchor="middle" fill="#888">0.01 BTC</text>

  <rect x="30" y="240" width="180" height="60" rx="8" fill="#fff2cc" stroke="#d6b656" stroke-width="1.5"/>
  <text x="120" y="267" font-size="14" text-anchor="middle" fill="#555">👤 Participante C</text>
  <text x="120" y="287" font-size="13" text-anchor="middle" fill="#888">0.01 BTC</text>

  <rect x="30" y="325" width="180" height="60" rx="8" fill="#fff2cc" stroke="#d6b656" stroke-width="1.5"/>
  <text x="120" y="352" font-size="14" text-anchor="middle" fill="#555">👤 Participante D</text>
  <text x="120" y="372" font-size="13" text-anchor="middle" fill="#888">0.01 BTC</text>

  <rect x="30" y="410" width="180" height="60" rx="8" fill="#fff2cc" stroke="#d6b656" stroke-width="1.5"/>
  <text x="120" y="437" font-size="14" text-anchor="middle" fill="#555">👤 Participante E</text>
  <text x="120" y="457" font-size="13" text-anchor="middle" fill="#888">0.01 BTC</text>

  <!-- Arrows to Whirlpool -->
  <line x1="210" y1="100" x2="338" y2="258" stroke="#d6b656" stroke-width="1.5" marker-end="url(#arr)"/>
  <line x1="210" y1="185" x2="348" y2="263" stroke="#d6b656" stroke-width="1.5" marker-end="url(#arr)"/>
  <line x1="210" y1="270" x2="355" y2="270" stroke="#d6b656" stroke-width="1.5" marker-end="url(#arr)"/>
  <line x1="210" y1="355" x2="348" y2="277" stroke="#d6b656" stroke-width="1.5" marker-end="url(#arr)"/>
  <line x1="210" y1="440" x2="338" y2="282" stroke="#d6b656" stroke-width="1.5" marker-end="url(#arr)"/>

  <!-- WHIRLPOOL center -->
  <ellipse cx="450" cy="270" rx="100" ry="120" fill="#e1d5e7" stroke="#9673a6" stroke-width="2.5"/>
  <text x="450" y="238" font-size="20" text-anchor="middle">🔀</text>
  <text x="450" y="262" font-size="16" font-weight="bold" text-anchor="middle" fill="#5a3a7a">WHIRLPOOL</text>
  <text x="450" y="282" font-size="13" text-anchor="middle" fill="#555">Coordenador</text>
  <text x="450" y="300" font-size="13" text-anchor="middle" fill="#555">mistura as</text>
  <text x="450" y="318" font-size="13" text-anchor="middle" fill="#555">entradas</text>
  <text x="450" y="340" font-size="14" font-weight="bold" text-anchor="middle" fill="#5a3a7a">Anonset: 5</text>
  <text x="450" y="358" font-size="12" text-anchor="middle" fill="#888">pool 0.01 BTC</text>

  <!-- OUTPUTS: 5 new addresses -->
  <rect x="690" y="70" width="180" height="60" rx="8" fill="#d5e8d4" stroke="#82b366" stroke-width="1.5"/>
  <text x="780" y="97" font-size="14" text-anchor="middle" fill="#555">📥 Endereço 1</text>
  <text x="780" y="117" font-size="13" text-anchor="middle" fill="#888">0.01 BTC</text>

  <rect x="690" y="155" width="180" height="60" rx="8" fill="#d5e8d4" stroke="#82b366" stroke-width="1.5"/>
  <text x="780" y="182" font-size="14" text-anchor="middle" fill="#555">📥 Endereço 2</text>
  <text x="780" y="202" font-size="13" text-anchor="middle" fill="#888">0.01 BTC</text>

  <rect x="690" y="240" width="180" height="60" rx="8" fill="#d5e8d4" stroke="#82b366" stroke-width="1.5"/>
  <text x="780" y="267" font-size="14" text-anchor="middle" fill="#555">📥 Endereço 3</text>
  <text x="780" y="287" font-size="13" text-anchor="middle" fill="#888">0.01 BTC</text>

  <rect x="690" y="325" width="180" height="60" rx="8" fill="#d5e8d4" stroke="#82b366" stroke-width="1.5"/>
  <text x="780" y="352" font-size="14" text-anchor="middle" fill="#555">📥 Endereço 4</text>
  <text x="780" y="372" font-size="13" text-anchor="middle" fill="#888">0.01 BTC</text>

  <rect x="690" y="410" width="180" height="60" rx="8" fill="#d5e8d4" stroke="#82b366" stroke-width="1.5"/>
  <text x="780" y="437" font-size="14" text-anchor="middle" fill="#555">📥 Endereço 5</text>
  <text x="780" y="457" font-size="13" text-anchor="middle" fill="#888">0.01 BTC</text>

  <!-- Arrows from Whirlpool to outputs -->
  <line x1="545" y1="258" x2="688" y2="100" stroke="#82b366" stroke-width="1.5" marker-end="url(#arr)"/>
  <line x1="548" y1="263" x2="688" y2="185" stroke="#82b366" stroke-width="1.5" marker-end="url(#arr)"/>
  <line x1="550" y1="270" x2="688" y2="270" stroke="#82b366" stroke-width="1.5" marker-end="url(#arr)"/>
  <line x1="548" y1="277" x2="688" y2="355" stroke="#82b366" stroke-width="1.5" marker-end="url(#arr)"/>
  <line x1="545" y1="282" x2="688" y2="440" stroke="#82b366" stroke-width="1.5" marker-end="url(#arr)"/>

  <!-- Legend -->
  <rect x="30" y="510" width="840" height="90" rx="10" fill="#ffe6cc" stroke="#d79b00" stroke-width="1.5"/>
  <text x="450" y="538" font-size="15" font-weight="bold" text-anchor="middle" fill="#7a4a00">⚠️  Analista vê 5 entradas e 5 saídas — não sabe qual é de quem</text>
  <text x="450" y="562" font-size="13" text-anchor="middle" fill="#555">Todos os outputs têm o mesmo valor (0.01 BTC) → impossível distinguir proprietários</text>
  <text x="450" y="585" font-size="13" text-anchor="middle" fill="#555">Regra: NUNCA consolidar UTXO pós-coinjoin com UTXO não-misturado (desfaz anonimato)</text>
</svg>
